<?xml version="1.0" encoding="utf-8"?>
<!-- Generator: Adobe Illustrator 19.0.0, SVG Export Plug-In . SVG Version: 6.00 Build 0)  -->
<svg version="1.1" id="Layer_1" xmlns="http://www.w3.org/2000/svg" xmlns:xlink="http://www.w3.org/1999/xlink" x="0px" y="0px"
	 viewBox="-554 378 170 45" style="enable-background:new -554 378 170 45;" xml:space="preserve">
<style type="text/css">
	.st0{fill:none;stroke:#838590;stroke-width:2;}
	.st1{fill:#4E4E4E;}
	.st2{font-family:'MSReferenceSansSerif';}
	.st3{font-size:27.9747px;}
</style>
<path class="st0" d="M-515.8,378.4h-30.3c-4.1,0-7.3,2.9-7.3,6.4v31.3c0,3.6,3.3,6.4,7.3,6.4h30.3c4.1,0,7.3-2.9,7.3-6.4v-31.3
	C-508.5,381.3-511.8,378.4-515.8,378.4z"/>
<path class="st1" d="M-517.7,392l-0.1,2.2l0,0.5l-0.5,3.5c-0.1,0.7-0.2,1.3-0.3,1.9c-0.1,0.6-0.3,1.2-0.4,1.7l-0.3,1l-0.3,0.8
	c-1.1,2.7-2.3,4.8-3.7,6l-1,0.9l-1.4,1c-1.8,1.3-4.3,2.2-7.6,2.6c-2.1,0-3.4-0.1-3.9-0.2c-1.5-0.2-2.6-0.8-3.5-1.7
	c-0.2-0.2-0.5-0.7-0.8-1.5l-0.3-1l-0.1-1.2c0-0.2,0-0.8,0.1-1.7l0.5-3.7l0.6-4.3l0.7-4.7l0.1-1.1c0-0.6-0.1-1.1-0.4-1.4l0.4-0.4
	l1.1-0.3l1.1-0.2l2.3-0.3l0.6,0c1.3-0.1,1.9,0.5,1.9,1.9v0.2l-0.1,0.7l-0.5,2.9l-0.7,2.6l-0.6,2.7l-0.8,4.1l-0.4,2.3l-0.1,1.6
	c-0.2,2,0.8,3.2,2.9,3.7l0.8,0.1c1.4,0,2.8-0.8,4.1-2.4c0.8-0.9,1.5-2.1,2.1-3.6c0.7-1.7,1.1-3.3,1.3-4.8l0.2-1.6l0.4-3.3l0.1-2
	l0.1-2.1c0-1,0-2-0.2-3c0-0.5-0.2-1.1-0.6-1.7l4.2-1.2c0.4-0.1,0.9-0.2,1.3-0.2c0.5,0,0.8,0.1,1.1,0.4
	C-517.9,388.5-517.6,389.8-517.7,392z"/>
<text id="XMLID_1_" transform="matrix(1.6325 0 0 1 -490.2719 412.5332)" class="st1 st2 st3">POS</text>
</svg>
