<svg width="170" height="45" viewBox="0 0 170 45" fill="none" xmlns="http://www.w3.org/2000/svg">
    <path opacity="0.7" d="M81.243 22.472V36H78.811V30.129H71.876V36H69.463V22.472H71.876V28.134H78.811V22.472H81.243ZM93.5829 26.405V36H91.2459V34.461C90.9545 34.993 90.5365 35.411 89.9919 35.715C89.4472 36.0063 88.8265 36.152 88.1299 36.152C87.2939 36.152 86.5529 35.9493 85.9069 35.544C85.2609 35.1387 84.7605 34.5623 84.4059 33.815C84.0512 33.0677 83.8739 32.2 83.8739 31.212C83.8739 30.224 84.0512 29.35 84.4059 28.59C84.7732 27.8173 85.2799 27.222 85.9259 26.804C86.5719 26.3733 87.3065 26.158 88.1299 26.158C88.8265 26.158 89.4472 26.31 89.9919 26.614C90.5365 26.9053 90.9545 27.317 91.2459 27.849V26.405H93.5829ZM88.7759 34.29C89.5612 34.29 90.1692 34.0177 90.5999 33.473C91.0305 32.9283 91.2459 32.162 91.2459 31.174C91.2459 30.1607 91.0305 29.3817 90.5999 28.837C90.1692 28.2923 89.5549 28.02 88.7569 28.02C87.9715 28.02 87.3572 28.305 86.9139 28.875C86.4832 29.4323 86.2679 30.2113 86.2679 31.212C86.2679 32.2 86.4832 32.96 86.9139 33.492C87.3572 34.024 87.9779 34.29 88.7759 34.29ZM105.842 26.405V35.696C105.842 37.1907 105.43 38.3243 104.607 39.097C103.783 39.8697 102.574 40.256 100.978 40.256C99.4955 40.256 98.1909 39.9457 97.0635 39.325L97.4435 37.52C98.6089 38.128 99.7679 38.432 100.921 38.432C102.631 38.432 103.486 37.5833 103.486 35.886V33.986C103.194 34.5053 102.77 34.9297 102.213 35.259C101.655 35.5757 101.028 35.734 100.332 35.734C99.4955 35.734 98.7482 35.5377 98.0895 35.145C97.4435 34.7397 96.9369 34.176 96.5695 33.454C96.2149 32.7193 96.0375 31.8833 96.0375 30.946C96.0375 30.0087 96.2149 29.179 96.5695 28.457C96.9369 27.7223 97.4435 27.1587 98.0895 26.766C98.7482 26.3607 99.4955 26.158 100.332 26.158C101.041 26.158 101.668 26.31 102.213 26.614C102.77 26.9053 103.194 27.317 103.486 27.849V26.405H105.842ZM100.959 33.872C101.744 33.872 102.358 33.6123 102.802 33.093C103.258 32.5737 103.486 31.858 103.486 30.946C103.486 30.034 103.264 29.3183 102.821 28.799C102.377 28.2797 101.757 28.02 100.959 28.02C100.173 28.02 99.5525 28.2797 99.0965 28.799C98.6532 29.3183 98.4315 30.034 98.4315 30.946C98.4315 31.858 98.6532 32.5737 99.0965 33.093C99.5525 33.6123 100.173 33.872 100.959 33.872ZM113.975 26.177C114.343 26.177 114.659 26.2277 114.925 26.329L114.906 28.495C114.501 28.3303 114.083 28.248 113.652 28.248C112.842 28.248 112.221 28.4823 111.79 28.951C111.372 29.4197 111.163 30.0403 111.163 30.813V36H108.807V29.122C108.807 28.1087 108.757 27.203 108.655 26.405H110.878L111.068 28.096C111.309 27.4753 111.689 27.0003 112.208 26.671C112.728 26.3417 113.317 26.177 113.975 26.177ZM124.86 31.326H118.248C118.299 32.352 118.552 33.112 119.008 33.606C119.477 34.0873 120.167 34.328 121.079 34.328C122.131 34.328 123.106 33.986 124.005 33.302L124.689 34.936C124.233 35.3033 123.67 35.601 122.998 35.829C122.34 36.0443 121.668 36.152 120.984 36.152C119.414 36.152 118.179 35.7087 117.279 34.822C116.38 33.9353 115.93 32.7193 115.93 31.174C115.93 30.1987 116.127 29.331 116.519 28.571C116.912 27.811 117.463 27.222 118.172 26.804C118.882 26.3733 119.686 26.158 120.585 26.158C121.903 26.158 122.941 26.5887 123.701 27.45C124.474 28.2987 124.86 29.4703 124.86 30.965V31.326ZM120.642 27.868C120.009 27.868 119.49 28.058 119.084 28.438C118.692 28.8053 118.438 29.3437 118.324 30.053H122.789C122.713 29.331 122.492 28.7863 122.124 28.419C121.77 28.0517 121.276 27.868 120.642 27.868ZM138.376 26.158C140.669 26.158 141.815 27.4753 141.815 30.11V36H139.44V30.224C139.44 29.464 139.295 28.913 139.003 28.571C138.712 28.2163 138.262 28.039 137.654 28.039C136.932 28.039 136.35 28.2733 135.906 28.742C135.463 29.198 135.241 29.806 135.241 30.566V36H132.885V22.016H135.241V27.792C135.571 27.2727 136.008 26.8737 136.552 26.595C137.097 26.3037 137.705 26.158 138.376 26.158ZM156.058 26.158C157.147 26.158 157.958 26.4873 158.49 27.146C159.022 27.792 159.288 28.78 159.288 30.11V36H156.913V30.186C156.913 29.426 156.786 28.8813 156.533 28.552C156.292 28.21 155.887 28.039 155.317 28.039C154.658 28.039 154.139 28.2733 153.759 28.742C153.391 29.198 153.208 29.8313 153.208 30.642V36H150.833V30.186C150.833 29.4387 150.7 28.894 150.434 28.552C150.18 28.21 149.775 28.039 149.218 28.039C148.559 28.039 148.04 28.2733 147.66 28.742C147.28 29.198 147.09 29.8313 147.09 30.642V36H144.734V29.122C144.734 28.1087 144.683 27.203 144.582 26.405H146.805L146.976 27.925C147.254 27.355 147.653 26.918 148.173 26.614C148.705 26.31 149.313 26.158 149.997 26.158C151.466 26.158 152.422 26.766 152.866 27.982C153.17 27.412 153.6 26.9687 154.158 26.652C154.728 26.3227 155.361 26.158 156.058 26.158ZM165.737 36.152C164.002 36.152 162.621 35.7467 161.595 34.936L162.26 33.264C163.286 34.024 164.458 34.404 165.775 34.404C166.345 34.404 166.782 34.309 167.086 34.119C167.403 33.929 167.561 33.663 167.561 33.321C167.561 33.0297 167.454 32.8017 167.238 32.637C167.023 32.4597 166.656 32.3077 166.136 32.181L164.54 31.82C162.792 31.44 161.918 30.547 161.918 29.141C161.918 28.5583 162.083 28.0453 162.412 27.602C162.742 27.146 163.204 26.7913 163.799 26.538C164.395 26.2847 165.085 26.158 165.87 26.158C166.554 26.158 167.213 26.2657 167.846 26.481C168.48 26.6837 169.037 26.9813 169.518 27.374L168.815 28.989C167.853 28.2797 166.865 27.925 165.851 27.925C165.307 27.925 164.882 28.0263 164.578 28.229C164.274 28.4317 164.122 28.7103 164.122 29.065C164.122 29.3437 164.211 29.5653 164.388 29.73C164.578 29.8947 164.895 30.034 165.338 30.148L166.972 30.509C167.922 30.7243 168.613 31.06 169.043 31.516C169.487 31.9593 169.708 32.542 169.708 33.264C169.708 34.1507 169.354 34.8537 168.644 35.373C167.935 35.8923 166.966 36.152 165.737 36.152Z" fill="#A4A6B3" />
    <path d="M38.1702 0.428589H7.82981C3.7758 0.428589 0.48938 3.30676 0.48938 6.85716V38.1429C0.48938 41.6933 3.7758 44.5714 7.82981 44.5714H38.1702C42.2242 44.5714 45.5107 41.6933 45.5107 38.1429V6.85716C45.5107 3.30676 42.2242 0.428589 38.1702 0.428589Z" stroke="#838590" stroke-width="2" />
    <path d="M36.2939 13.9886L36.1999 16.1691L36.153 16.6628L35.6832 20.1188C35.5892 20.7771 35.4796 21.408 35.3543 22.0114C35.229 22.6148 35.0881 23.1908 34.9315 23.7394L34.6027 24.7268L34.2738 25.5497C33.209 28.2926 31.9719 30.3086 30.5625 31.5977L29.529 32.544L28.1666 33.5314C26.3814 34.8754 23.8602 35.7531 20.603 36.1646C18.5359 36.1646 17.2205 36.096 16.6568 35.9588C15.1848 35.712 14.026 35.136 13.1804 34.2308C12.9611 34.0114 12.6793 33.5177 12.3347 32.7497L12.0529 31.7211L11.9589 30.528C11.9276 30.2811 11.9746 29.7051 12.0999 28.8L12.6166 25.056L13.1804 20.7771L13.885 16.0868L13.979 14.976C14.0103 14.4 13.8694 13.92 13.5562 13.536L13.932 13.1246L15.0125 12.8366L16.093 12.5897L18.395 12.2606L18.9587 12.2194C20.2115 12.1371 20.8379 12.768 20.8379 14.112V14.3588L20.7439 15.0171L20.2272 17.9383L19.5695 20.5714L19.0057 23.2868L18.2071 27.4011L17.8312 29.7463L17.7373 31.3508C17.5807 33.3531 18.5516 34.5874 20.65 35.0537L21.4016 35.136C22.811 35.136 24.1734 34.3406 25.4888 32.7497C26.2718 31.8171 26.9608 30.6103 27.5559 29.1291C28.2136 27.4286 28.652 25.8377 28.8713 24.3566L29.0592 22.7931L29.482 19.4606L29.6229 17.4857L29.7169 15.3874C29.7482 14.3451 29.6856 13.344 29.529 12.384C29.529 11.8903 29.3254 11.328 28.9182 10.6971L33.0993 9.54513C33.5378 9.43541 33.9606 9.38055 34.3678 9.38055C34.8376 9.38055 35.1977 9.5177 35.4483 9.79198C36.0747 10.4503 36.3565 11.8491 36.2939 13.9886Z" fill="#838590" />
</svg>
