<svg width="594" height="546" viewBox="0 0 594 546" fill="none" xmlns="http://www.w3.org/2000/svg">
<path d="M244.115 408.818H264.075V394.846H244.115V408.818Z" fill="#78ABCE"/>
<path d="M244.115 455.143H264.075V448.16H244.115V455.143Z" fill="#78ABCE"/>
<path d="M247.132 448.161H261.055V408.819H247.132V448.161Z" fill="#8BB8DC"/>
<path d="M191.383 462.609H316.804V454.856H191.383V462.609Z" fill="#78ABCE"/>
<path d="M191.386 457.033C186.19 457.033 181.977 460.269 181.977 464.261C181.977 468.248 186.19 471.481 191.386 471.481C196.578 471.481 200.788 468.248 200.788 464.261C200.788 460.269 196.578 457.033 191.386 457.033Z" fill="#629ABF"/>
<path d="M316.804 457.033C311.609 457.033 307.398 460.269 307.398 464.261C307.398 468.248 311.609 471.481 316.804 471.481C321.999 471.481 326.21 468.248 326.21 464.261C326.21 460.269 321.999 457.033 316.804 457.033Z" fill="#629ABF"/>
<path d="M253.647 361.177C210.367 361.177 175.279 361.177 175.279 379.216C175.279 389.177 210.367 397.252 253.647 397.252C296.93 397.252 332.014 389.177 332.014 379.216C332.014 361.177 296.93 361.177 253.647 361.177Z" fill="#8BB8DC"/>
<path d="M147.424 114.992H166.684V69.017H147.424V114.992Z" fill="#A0CFE6"/>
<path d="M147.424 74.8638H166.684V69.0171H147.424V74.8638Z" fill="#8BB8DC"/>
<path d="M147.424 114.989H166.684V110.519H147.424V114.989Z" fill="#8BB8DC"/>
<path d="M141.499 422.745L135.726 422.94C138.658 424.233 141.499 422.745 141.499 422.745Z" fill="white"/>
<path d="M112.743 269.926C67.9681 277.315 74.3519 342.429 72.3525 402.397L79.401 424.861L135.726 422.94C131.755 421.194 127.618 414.349 130.135 391.816C134.508 352.637 133.232 336.987 133.232 336.987L184.293 247.782C184.293 247.782 129.788 267.116 112.743 269.926Z" fill="white"/>
<path d="M126.154 398.042L132.338 396.917L131.102 336.25L126.154 398.042Z" fill="#E6E6E7"/>
<path d="M151.995 520.671L151.783 546H235.042L236.17 518.774L151.995 520.671Z" fill="#343444"/>
<path d="M246.072 520.671L247.125 546H330.446L330.252 522.575L246.072 520.671Z" fill="#343444"/>
<path d="M347.853 422.829L345.847 422.745C345.847 422.745 346.96 424.317 347.853 422.829Z" fill="#F0F1F1"/>
<path d="M362.227 269.924C345.183 267.115 290.671 247.782 290.671 247.782L341.737 336.987C341.737 336.987 342.939 352.637 347.314 391.815C349.783 413.894 349.002 420.91 347.854 422.829L395.57 424.861L402.613 402.397C400.611 342.428 406.995 277.315 362.227 269.924Z" fill="#F0F1F1"/>
<path d="M203.134 259.197L128.596 280.714L128.512 487.618L346.173 487.678L346.27 280.772L275.92 251.764L203.134 259.197Z" fill="#D34A4A"/>
<path d="M229.931 284.381L218.525 407.434L239.246 435.296L260.67 408.665L246.84 284.384L229.931 284.381Z" fill="#3D3D77"/>
<path d="M238.146 256.254C238.146 256.254 221.249 256.517 217.133 262.339C208.031 275.198 229.931 286.216 229.931 286.216H246.827C246.827 286.216 264.937 276.229 259.82 266.564C255.688 258.778 238.146 256.254 238.146 256.254Z" fill="#262260"/>
<path d="M181.194 251.519L207.332 279.246L239.089 255.224L185.985 228.631L181.194 251.519Z" fill="#EA5E5E"/>
<path d="M237.189 255.216L268.941 279.26L292.709 253.384L290.317 228.659L237.189 255.216Z" fill="#EA5E5E"/>
<path d="M185.972 249.689L131.983 268.404L121.401 318.467C121.401 318.467 117.457 461.258 116.13 546H241.024L244.551 416.015L185.972 249.689Z" fill="white"/>
<path d="M169.953 249.681L155.877 294.173L178.638 311.319L176.561 324.785L244.551 416.015L182.96 240.183L169.953 249.681Z" fill="#F0F1F1"/>
<path d="M139.948 484.596L188.338 484.608V479.711L139.948 479.694V484.596Z" fill="#D0D2D3"/>
<path d="M343.799 268.452L289.816 249.717L231.101 416.015L231.192 546H359.485C358.206 461.251 354.334 318.527 354.334 318.527L343.799 268.452Z" fill="#F0F1F1"/>
<path d="M305.84 249.72L292.851 240.212L231.101 416.015L306.339 324.811L297.102 311.345L319.871 294.217L305.84 249.72Z" fill="white"/>
<path d="M245.003 433.774C242.356 433.772 240.221 435.416 240.212 437.444C240.206 439.476 242.36 441.12 244.99 441.12C247.624 441.12 249.778 439.478 249.775 437.451C249.778 435.424 247.636 433.772 245.003 433.774Z" fill="#D0D2D3"/>
<path d="M244.981 472.351C242.35 472.334 240.202 473.995 240.196 476.02C240.196 478.047 242.341 479.692 244.981 479.694C247.611 479.692 249.762 478.047 249.768 476.02C249.774 473.986 247.624 472.344 244.981 472.351Z" fill="#D0D2D3"/>
<path d="M245.297 513.327C242.654 513.325 240.513 514.972 240.497 516.997C240.497 519.034 242.661 520.671 245.282 520.671C247.918 520.671 250.072 519.034 250.063 517.004C250.072 514.974 247.931 513.325 245.297 513.327Z" fill="#D0D2D3"/>
<path d="M285.843 484.633L334.227 484.652L334.237 479.743L285.843 479.738V484.633Z" fill="#D0D2D3"/>
<path d="M181.705 418.955L356.237 444.619V433.213L184.178 406.594L181.705 418.955Z" fill="#D0D2D3"/>
<path d="M256.807 380.268L258.246 393.83L345.408 402.542L344.988 390.529L256.807 380.268Z" fill="#D0D2D3"/>
<path d="M340.153 396.917L346.342 398.042L341.391 336.25L340.153 396.917Z" fill="#D0D2D3"/>
<path d="M153.022 367.847C150.758 371.728 159.029 375.761 159.029 375.761C159.029 375.761 139.174 371.619 132.038 373.271C124.904 374.916 120.92 381.71 119.94 386.497C118.967 391.283 125.224 400.139 136.116 403.12C147.025 406.11 180.27 409.811 183.422 406.849C186.581 403.897 191.918 380.408 191.918 380.408L165.353 366.628C165.353 366.628 155.296 363.963 153.022 367.847Z" fill="#FFBA7F"/>
<path d="M356.496 398.852L190.375 373.632L181.202 413.932C181.202 413.932 334.767 436.945 370.437 441.464C406.09 445.981 401.524 395.927 401.524 395.927L356.496 398.852Z" fill="#F0F1F1"/>
<path d="M118.722 433.213V444.619L293.264 418.955L290.784 406.594L118.722 433.213Z" fill="#D0D2D3"/>
<path d="M304.482 374.641C285.081 373.639 273.772 378.575 273.772 378.575C273.772 378.575 279.118 402.065 282.272 405.019C285.429 407.976 300.012 395.935 310.919 392.947C321.818 389.971 332.39 391.158 339.099 390.537C345.37 389.961 322.257 375.551 304.482 374.641Z" fill="#FFBA7F"/>
<path d="M118.473 395.044L73.4489 395.928C73.4489 395.928 68.8711 445.981 104.538 441.465C140.202 436.945 293.766 413.933 293.766 413.933L284.592 369.828L118.473 395.044Z" fill="white"/>
<path d="M155.951 398.976C149.965 399.669 142.461 399.489 139.871 397.618C138.167 396.669 136.277 392.706 135.431 387.275C133.527 376.433 134.15 359.986 133.956 347.035L129.011 347.078C129.211 359.935 128.547 376.404 130.516 387.775C131.606 393.496 132.959 397.977 136.669 400.527C142.009 403.789 150.155 403.332 156.606 402.749C161.856 402.202 165.957 401.336 166.025 401.314L164.707 397.659C164.705 397.659 160.841 398.48 155.951 398.976Z" fill="#BBBDBF"/>
<path d="M161.515 396.229C158.169 396.78 155.854 398.603 156.319 400.317C156.795 402.024 159.879 402.973 163.233 402.433C166.57 401.879 168.896 400.052 168.424 398.343C167.952 396.631 164.861 395.68 161.515 396.229Z" fill="#57585A"/>
<path d="M205.005 339.265L200.215 340.226C204.469 352.758 210.687 368.502 212.577 379.341C213.599 384.746 213.151 388.957 211.84 390.221C209.978 392.545 202.801 394.245 196.778 394.782C191.897 395.282 187.895 395.261 187.882 395.275L187.875 399.07C187.941 399.07 192.187 399.082 197.44 398.55C203.864 397.808 211.891 396.604 215.923 392.376C218.619 389.169 218.4 384.58 217.481 378.84C215.49 367.464 209.213 351.713 205.005 339.265Z" fill="#BBBDBF"/>
<path d="M190.49 393.248C187.073 393.4 184.41 394.938 184.537 396.689C184.669 398.429 187.542 399.725 190.953 399.58C194.37 399.429 197.026 397.89 196.901 396.147C196.772 394.396 193.897 393.099 190.49 393.248Z" fill="#57585A"/>
<path d="M160.691 306.708C138.548 309.142 125.037 328.437 128.627 349.278L135.033 348.616H135.024C133.381 339.147 135.692 330.219 140.609 323.554C145.555 316.871 152.914 312.513 161.547 311.627C170.18 310.738 178.769 313.459 185.825 318.908C192.844 324.347 198.145 332.489 199.791 341.957L206.2 341.302C202.525 320.47 182.886 304.582 160.691 306.708Z" fill="#57585A"/>
<path d="M167.023 241.876C161.054 247.837 155.882 255.484 153.897 263.567C153.114 266.771 152.806 270.051 152.806 273.251C152.824 286.088 157.398 310.459 157.444 310.582L163.64 309.193H163.629C163.629 309.178 163.472 306.506 162.299 302.201C161.131 297.891 158.993 279.21 159.001 273.251C158.993 270.287 159.283 267.289 159.976 264.441C161.708 257.314 166.451 250.226 171.924 244.777C177.329 239.314 183.723 235.56 187.402 234.932L185.9 230.324C179.663 231.595 173.073 235.929 167.023 241.876Z" fill="#57585A"/>
<path d="M309.22 241.876C303.175 235.926 296.578 231.595 290.349 230.323L288.847 234.937C292.518 235.567 298.914 239.319 304.316 244.777C309.791 250.226 314.537 257.314 316.271 264.441C316.942 267.236 317.24 270.862 317.24 274.825C317.25 290.771 312.5 311.875 312.506 311.913L318.61 312.732V312.725C318.613 312.662 323.417 291.414 323.432 274.825C323.429 270.679 323.138 266.822 322.357 263.567C320.357 255.482 315.199 247.837 309.22 241.876Z" fill="#57585A"/>
<path d="M309.022 310.582C296.713 310.582 286.74 318.243 286.74 327.696C286.74 337.144 296.713 344.805 309.022 344.805C321.322 344.805 331.302 337.144 331.302 327.696C331.302 318.243 321.322 310.582 309.022 310.582Z" fill="#929597"/>
<path d="M309.022 319.457C303.1 319.457 298.281 323.143 298.281 327.696C298.281 332.242 303.1 335.938 309.022 335.938C314.939 335.938 319.745 332.242 319.745 327.696C319.745 323.143 314.939 319.457 309.022 319.457Z" fill="#D0D2D3"/>
<path d="M127.407 145.927C116.737 148.31 119.202 160.611 119.194 165.183C119.186 169.768 128.114 185.975 134.095 187.752C149.249 192.266 149.256 175.304 149.256 175.304V155.566C149.256 155.566 138.069 143.552 127.407 145.927Z" fill="#FFBA7F"/>
<path d="M344.654 146.125C333.982 143.749 322.792 155.74 322.792 155.74V175.487C322.792 175.487 322.77 192.976 337.931 187.947C343.812 185.99 352.849 169.959 352.858 165.381C352.858 160.803 355.32 148.506 344.654 146.125Z" fill="#FFBA7F"/>
<path d="M262.999 59.4298L209.994 59.4208C171.517 59.4059 140.325 90.6435 140.299 129.183L140.282 182.278C140.261 220.821 192.571 247.842 209.915 252.084C228.169 256.546 246.041 255.915 262.924 252.096C281.153 247.967 332.602 220.872 332.625 182.332L332.645 129.234C332.652 90.6912 301.476 59.4357 262.999 59.4298Z" fill="#FFBA7F"/>
<path d="M140.282 159.371C147.411 154.964 165.161 80.7315 166.069 76.8111L135.677 84.2519C135.677 84.2519 134.081 163.214 140.282 159.371Z" fill="#3B2314"/>
<path d="M309.978 81.4892C309.978 81.4892 327.969 157.373 333.561 160.986C339.143 164.594 337.769 93.1247 337.769 93.1247L309.978 81.4892Z" fill="#3B2314"/>
<path d="M193.577 154.209C187.264 154.209 182.151 158.133 182.151 162.98C182.151 167.82 187.264 171.742 193.564 171.742C199.864 171.747 204.98 167.82 204.98 162.985C204.99 158.141 199.879 154.216 193.577 154.209Z" fill="#221F1F"/>
<path d="M280.523 154.228C274.23 154.228 269.104 158.152 269.104 162.999C269.104 167.839 274.214 171.766 280.513 171.766C286.821 171.766 291.935 167.839 291.935 162.999C291.935 158.162 286.821 154.228 280.523 154.228Z" fill="#221F1F"/>
<path d="M309.52 139.72C296.233 132.889 270.854 135.264 266.982 135.566C263.599 135.817 256.672 138.138 257.022 140.738C257.349 143.349 269.259 145.257 272.636 144.999C285.537 144.018 297.477 143.06 315.659 146.294C318.975 146.887 312.348 141.177 309.52 139.72Z" fill="#3B2314"/>
<path d="M208.814 135.963C204.952 135.672 179.565 133.281 166.27 140.108C163.435 141.556 156.818 147.321 160.138 146.678C178.659 143.062 190.259 144.417 203.149 145.397C206.535 145.663 218.449 143.759 218.792 141.156C219.121 138.548 212.21 136.229 208.814 135.963Z" fill="#3B2314"/>
<path d="M201.955 209.834C207.514 218.685 215.694 233.124 240.485 233.095C266.476 233.063 282.573 202.599 282.573 202.599C249.79 214.524 231.098 215.952 201.955 209.834Z" fill="#D15C58"/>
<path d="M208.489 211.103C210.561 216.34 220.143 218.492 239.503 217.438C265.144 216.024 270.853 211.175 274.029 205.572C253.355 212.849 225.14 213.881 208.489 211.103Z" fill="white"/>
<path d="M240.115 224.143C240.115 224.143 235.267 221.188 229.53 221.188C223.808 221.188 213.004 223.948 213.004 223.948C217.964 229.196 227.037 232.989 239.748 233.034C255.823 233.097 265.608 223.119 265.608 223.119C265.608 223.119 255.581 221.241 248.593 221.191C244.144 221.157 240.115 224.143 240.115 224.143Z" fill="#F88976"/>
<path d="M251.687 191.574C241.761 197.933 227.68 196.004 223.551 191.562C223.551 191.562 227.686 202.986 237.616 202.63C247.545 202.262 261.617 185.215 251.687 191.574Z" fill="#F69D5E"/>
<path d="M263.609 38.3975C219.565 30.584 195.131 43.6623 195.131 43.6623C195.131 43.6623 188.663 39.6813 193.656 34.5619C181.445 35.8457 178.109 45.5058 174.219 52.8987C162.011 49.9106 152.205 53.8916 152.205 53.8916C152.205 53.8916 162.011 59.713 151.467 66.3944C121.856 85.1613 135.92 107.04 135.92 107.04C135.92 107.04 146.824 127.874 152.017 123.669C171.447 107.89 186.718 99.5771 190.055 87.6403C190.055 87.6403 210.708 108.187 238.537 113.006C261.478 116.987 289.883 120.402 301.915 118.553C291.545 110.591 288.589 95.5265 288.589 95.5265C288.589 95.5265 321.552 141.908 337.438 107.463C354.292 70.9446 295.109 43.9944 263.609 38.3975Z" fill="#3B2314"/>
<path d="M221.61 154.381C221.61 154.381 221.61 173.895 209.439 178.621C199.738 182.389 172.543 182.008 165.097 176.676C157.646 171.331 154.491 152.532 154.491 152.532" stroke="#221F1F" stroke-width="13.29" stroke-miterlimit="10"/>
<path d="M152.253 153.963C152.253 153.963 197.694 146.829 223.848 154.685" stroke="#221F1F" stroke-width="28.7247" stroke-miterlimit="10" stroke-linecap="round"/>
<path d="M156.516 156.402L132.583 143.831" stroke="#221F1F" stroke-width="25.9734" stroke-miterlimit="10"/>
<path d="M252.648 154.379C252.648 154.379 252.648 173.971 264.864 178.714C274.599 182.494 301.899 182.111 309.378 176.757C316.862 171.398 320.028 152.528 320.028 152.528" stroke="#221F1F" stroke-width="13.29" stroke-miterlimit="10"/>
<path d="M250.402 154.688C278.617 147.473 322.274 153.962 322.274 153.962" stroke="#221F1F" stroke-width="28.8343" stroke-miterlimit="10" stroke-linecap="round"/>
<path d="M317.979 156.402L341.938 143.831" stroke="#221F1F" stroke-width="25.9734" stroke-miterlimit="10"/>
<path d="M223.849 158.001C223.849 158.001 232.029 154.801 237.669 154.801C244.488 154.801 250.402 157.435 250.402 157.435" stroke="#221F1F" stroke-width="24" stroke-miterlimit="10" stroke-linecap="square"/>
</svg>
